<?xml version="1.0" encoding="utf-8" standalone="no"?>
<!DOCTYPE svg PUBLIC "-//W3C//DTD SVG 1.1//EN"
  "http://www.w3.org/Graphics/SVG/1.1/DTD/svg11.dtd">
<!-- Created with matplotlib (http://matplotlib.org/) -->
<svg height="320.05625pt" version="1.1" viewBox="0 0 553.503125 320.05625" width="553.503125pt" xmlns="http://www.w3.org/2000/svg" xmlns:xlink="http://www.w3.org/1999/xlink">
 <defs>
  <style type="text/css">
*{stroke-linecap:butt;stroke-linejoin:round;}
  </style>
 </defs>
 <g id="figure_1">
  <g id="patch_1">
   <path d="M 0 320.05625 
L 553.503125 320.05625 
L 553.503125 0 
L 0 0 
z
" style="fill:none;"/>
  </g>
  <g id="axes_1">
   <g id="patch_2">
    <path d="M 40.603125 282.5 
L 542.803125 282.5 
L 542.803125 10.7 
L 40.603125 10.7 
z
" style="fill:none;"/>
   </g>
   <g id="matplotlib.axis_1">
    <g id="xtick_1">
     <g id="line2d_1">
      <path clip-path="url(#pa82ab7c9e6)" d="M 63.430398 282.5 
L 63.430398 10.7 
" style="fill:none;stroke:#b0b0b0;stroke-linecap:square;stroke-width:0.8;"/>
     </g>
     <g id="line2d_2">
      <defs>
       <path d="M 0 0 
L 0 3.5 
" id="me80c5198ad" style="stroke:#000000;stroke-width:0.8;"/>
      </defs>
      <g>
       <use style="stroke:#000000;stroke-width:0.8;" x="63.430398" xlink:href="#me80c5198ad" y="282.5"/>
      </g>
     </g>
     <g id="text_1">
      <!-- 0 -->
      <defs>
       <path d="M 31.78125 66.40625 
Q 24.171875 66.40625 20.328125 58.90625 
Q 16.5 51.421875 16.5 36.375 
Q 16.5 21.390625 20.328125 13.890625 
Q 24.171875 6.390625 31.78125 6.390625 
Q 39.453125 6.390625 43.28125 13.890625 
Q 47.125 21.390625 47.125 36.375 
Q 47.125 51.421875 43.28125 58.90625 
Q 39.453125 66.40625 31.78125 66.40625 
z
M 31.78125 74.21875 
Q 44.046875 74.21875 50.515625 64.515625 
Q 56.984375 54.828125 56.984375 36.375 
Q 56.984375 17.96875 50.515625 8.265625 
Q 44.046875 -1.421875 31.78125 -1.421875 
Q 19.53125 -1.421875 13.0625 8.265625 
Q 6.59375 17.96875 6.59375 36.375 
Q 6.59375 54.828125 13.0625 64.515625 
Q 19.53125 74.21875 31.78125 74.21875 
z
" id="DejaVuSans-30"/>
      </defs>
      <g transform="translate(60.249148 297.098437)scale(0.1 -0.1)">
       <use xlink:href="#DejaVuSans-30"/>
      </g>
     </g>
    </g>
    <g id="xtick_2">
     <g id="line2d_3">
      <path clip-path="url(#pa82ab7c9e6)" d="M 154.740402 282.5 
L 154.740402 10.7 
" style="fill:none;stroke:#b0b0b0;stroke-linecap:square;stroke-width:0.8;"/>
     </g>
     <g id="line2d_4">
      <g>
       <use style="stroke:#000000;stroke-width:0.8;" x="154.740402" xlink:href="#me80c5198ad" y="282.5"/>
      </g>
     </g>
     <g id="text_2">
      <!-- 20 -->
      <defs>
       <path d="M 19.1875 8.296875 
L 53.609375 8.296875 
L 53.609375 0 
L 7.328125 0 
L 7.328125 8.296875 
Q 12.9375 14.109375 22.625 23.890625 
Q 32.328125 33.6875 34.8125 36.53125 
Q 39.546875 41.84375 41.421875 45.53125 
Q 43.3125 49.21875 43.3125 52.78125 
Q 43.3125 58.59375 39.234375 62.25 
Q 35.15625 65.921875 28.609375 65.921875 
Q 23.96875 65.921875 18.8125 64.3125 
Q 13.671875 62.703125 7.8125 59.421875 
L 7.8125 69.390625 
Q 13.765625 71.78125 18.9375 73 
Q 24.125 74.21875 28.421875 74.21875 
Q 39.75 74.21875 46.484375 68.546875 
Q 53.21875 62.890625 53.21875 53.421875 
Q 53.21875 48.921875 51.53125 44.890625 
Q 49.859375 40.875 45.40625 35.40625 
Q 44.1875 33.984375 37.640625 27.21875 
Q 31.109375 20.453125 19.1875 8.296875 
z
" id="DejaVuSans-32"/>
      </defs>
      <g transform="translate(148.377902 297.098437)scale(0.1 -0.1)">
       <use xlink:href="#DejaVuSans-32"/>
       <use x="63.623047" xlink:href="#DejaVuSans-30"/>
      </g>
     </g>
    </g>
    <g id="xtick_3">
     <g id="line2d_5">
      <path clip-path="url(#pa82ab7c9e6)" d="M 246.050406 282.5 
L 246.050406 10.7 
" style="fill:none;stroke:#b0b0b0;stroke-linecap:square;stroke-width:0.8;"/>
     </g>
     <g id="line2d_6">
      <g>
       <use style="stroke:#000000;stroke-width:0.8;" x="246.050406" xlink:href="#me80c5198ad" y="282.5"/>
      </g>
     </g>
     <g id="text_3">
      <!-- 40 -->
      <defs>
       <path d="M 37.796875 64.3125 
L 12.890625 25.390625 
L 37.796875 25.390625 
z
M 35.203125 72.90625 
L 47.609375 72.90625 
L 47.609375 25.390625 
L 58.015625 25.390625 
L 58.015625 17.1875 
L 47.609375 17.1875 
L 47.609375 0 
L 37.796875 0 
L 37.796875 17.1875 
L 4.890625 17.1875 
L 4.890625 26.703125 
z
" id="DejaVuSans-34"/>
      </defs>
      <g transform="translate(239.687906 297.098437)scale(0.1 -0.1)">
       <use xlink:href="#DejaVuSans-34"/>
       <use x="63.623047" xlink:href="#DejaVuSans-30"/>
      </g>
     </g>
    </g>
    <g id="xtick_4">
     <g id="line2d_7">
      <path clip-path="url(#pa82ab7c9e6)" d="M 337.36041 282.5 
L 337.36041 10.7 
" style="fill:none;stroke:#b0b0b0;stroke-linecap:square;stroke-width:0.8;"/>
     </g>
     <g id="line2d_8">
      <g>
       <use style="stroke:#000000;stroke-width:0.8;" x="337.36041" xlink:href="#me80c5198ad" y="282.5"/>
      </g>
     </g>
     <g id="text_4">
      <!-- 60 -->
      <defs>
       <path d="M 33.015625 40.375 
Q 26.375 40.375 22.484375 35.828125 
Q 18.609375 31.296875 18.609375 23.390625 
Q 18.609375 15.53125 22.484375 10.953125 
Q 26.375 6.390625 33.015625 6.390625 
Q 39.65625 6.390625 43.53125 10.953125 
Q 47.40625 15.53125 47.40625 23.390625 
Q 47.40625 31.296875 43.53125 35.828125 
Q 39.65625 40.375 33.015625 40.375 
z
M 52.59375 71.296875 
L 52.59375 62.3125 
Q 48.875 64.0625 45.09375 64.984375 
Q 41.3125 65.921875 37.59375 65.921875 
Q 27.828125 65.921875 22.671875 59.328125 
Q 17.53125 52.734375 16.796875 39.40625 
Q 19.671875 43.65625 24.015625 45.921875 
Q 28.375 48.1875 33.59375 48.1875 
Q 44.578125 48.1875 50.953125 41.515625 
Q 57.328125 34.859375 57.328125 23.390625 
Q 57.328125 12.15625 50.6875 5.359375 
Q 44.046875 -1.421875 33.015625 -1.421875 
Q 20.359375 -1.421875 13.671875 8.265625 
Q 6.984375 17.96875 6.984375 36.375 
Q 6.984375 53.65625 15.1875 63.9375 
Q 23.390625 74.21875 37.203125 74.21875 
Q 40.921875 74.21875 44.703125 73.484375 
Q 48.484375 72.75 52.59375 71.296875 
z
" id="DejaVuSans-36"/>
      </defs>
      <g transform="translate(330.99791 297.098437)scale(0.1 -0.1)">
       <use xlink:href="#DejaVuSans-36"/>
       <use x="63.623047" xlink:href="#DejaVuSans-30"/>
      </g>
     </g>
    </g>
    <g id="xtick_5">
     <g id="line2d_9">
      <path clip-path="url(#pa82ab7c9e6)" d="M 428.670414 282.5 
L 428.670414 10.7 
" style="fill:none;stroke:#b0b0b0;stroke-linecap:square;stroke-width:0.8;"/>
     </g>
     <g id="line2d_10">
      <g>
       <use style="stroke:#000000;stroke-width:0.8;" x="428.670414" xlink:href="#me80c5198ad" y="282.5"/>
      </g>
     </g>
     <g id="text_5">
      <!-- 80 -->
      <defs>
       <path d="M 31.78125 34.625 
Q 24.75 34.625 20.71875 30.859375 
Q 16.703125 27.09375 16.703125 20.515625 
Q 16.703125 13.921875 20.71875 10.15625 
Q 24.75 6.390625 31.78125 6.390625 
Q 38.8125 6.390625 42.859375 10.171875 
Q 46.921875 13.96875 46.921875 20.515625 
Q 46.921875 27.09375 42.890625 30.859375 
Q 38.875 34.625 31.78125 34.625 
z
M 21.921875 38.8125 
Q 15.578125 40.375 12.03125 44.71875 
Q 8.5 49.078125 8.5 55.328125 
Q 8.5 64.0625 14.71875 69.140625 
Q 20.953125 74.21875 31.78125 74.21875 
Q 42.671875 74.21875 48.875 69.140625 
Q 55.078125 64.0625 55.078125 55.328125 
Q 55.078125 49.078125 51.53125 44.71875 
Q 48 40.375 41.703125 38.8125 
Q 48.828125 37.15625 52.796875 32.3125 
Q 56.78125 27.484375 56.78125 20.515625 
Q 56.78125 9.90625 50.3125 4.234375 
Q 43.84375 -1.421875 31.78125 -1.421875 
Q 19.734375 -1.421875 13.25 4.234375 
Q 6.78125 9.90625 6.78125 20.515625 
Q 6.78125 27.484375 10.78125 32.3125 
Q 14.796875 37.15625 21.921875 38.8125 
z
M 18.3125 54.390625 
Q 18.3125 48.734375 21.84375 45.5625 
Q 25.390625 42.390625 31.78125 42.390625 
Q 38.140625 42.390625 41.71875 45.5625 
Q 45.3125 48.734375 45.3125 54.390625 
Q 45.3125 60.0625 41.71875 63.234375 
Q 38.140625 66.40625 31.78125 66.40625 
Q 25.390625 66.40625 21.84375 63.234375 
Q 18.3125 60.0625 18.3125 54.390625 
z
" id="DejaVuSans-38"/>
      </defs>
      <g transform="translate(422.307914 297.098437)scale(0.1 -0.1)">
       <use xlink:href="#DejaVuSans-38"/>
       <use x="63.623047" xlink:href="#DejaVuSans-30"/>
      </g>
     </g>
    </g>
    <g id="xtick_6">
     <g id="line2d_11">
      <path clip-path="url(#pa82ab7c9e6)" d="M 519.980418 282.5 
L 519.980418 10.7 
" style="fill:none;stroke:#b0b0b0;stroke-linecap:square;stroke-width:0.8;"/>
     </g>
     <g id="line2d_12">
      <g>
       <use style="stroke:#000000;stroke-width:0.8;" x="519.980418" xlink:href="#me80c5198ad" y="282.5"/>
      </g>
     </g>
     <g id="text_6">
      <!-- 100 -->
      <defs>
       <path d="M 12.40625 8.296875 
L 28.515625 8.296875 
L 28.515625 63.921875 
L 10.984375 60.40625 
L 10.984375 69.390625 
L 28.421875 72.90625 
L 38.28125 72.90625 
L 38.28125 8.296875 
L 54.390625 8.296875 
L 54.390625 0 
L 12.40625 0 
z
" id="DejaVuSans-31"/>
      </defs>
      <g transform="translate(510.436668 297.098437)scale(0.1 -0.1)">
       <use xlink:href="#DejaVuSans-31"/>
       <use x="63.623047" xlink:href="#DejaVuSans-30"/>
       <use x="127.246094" xlink:href="#DejaVuSans-30"/>
      </g>
     </g>
    </g>
    <g id="text_7">
     <!-- time -->
     <defs>
      <path d="M 18.3125 70.21875 
L 18.3125 54.6875 
L 36.8125 54.6875 
L 36.8125 47.703125 
L 18.3125 47.703125 
L 18.3125 18.015625 
Q 18.3125 11.328125 20.140625 9.421875 
Q 21.96875 7.515625 27.59375 7.515625 
L 36.8125 7.515625 
L 36.8125 0 
L 27.59375 0 
Q 17.1875 0 13.234375 3.875 
Q 9.28125 7.765625 9.28125 18.015625 
L 9.28125 47.703125 
L 2.6875 47.703125 
L 2.6875 54.6875 
L 9.28125 54.6875 
L 9.28125 70.21875 
z
" id="DejaVuSans-74"/>
      <path d="M 9.421875 54.6875 
L 18.40625 54.6875 
L 18.40625 0 
L 9.421875 0 
z
M 9.421875 75.984375 
L 18.40625 75.984375 
L 18.40625 64.59375 
L 9.421875 64.59375 
z
" id="DejaVuSans-69"/>
      <path d="M 52 44.1875 
Q 55.375 50.25 60.0625 53.125 
Q 64.75 56 71.09375 56 
Q 79.640625 56 84.28125 50.015625 
Q 88.921875 44.046875 88.921875 33.015625 
L 88.921875 0 
L 79.890625 0 
L 79.890625 32.71875 
Q 79.890625 40.578125 77.09375 44.375 
Q 74.3125 48.1875 68.609375 48.1875 
Q 61.625 48.1875 57.5625 43.546875 
Q 53.515625 38.921875 53.515625 30.90625 
L 53.515625 0 
L 44.484375 0 
L 44.484375 32.71875 
Q 44.484375 40.625 41.703125 44.40625 
Q 38.921875 48.1875 33.109375 48.1875 
Q 26.21875 48.1875 22.15625 43.53125 
Q 18.109375 38.875 18.109375 30.90625 
L 18.109375 0 
L 9.078125 0 
L 9.078125 54.6875 
L 18.109375 54.6875 
L 18.109375 46.1875 
Q 21.1875 51.21875 25.484375 53.609375 
Q 29.78125 56 35.6875 56 
Q 41.65625 56 45.828125 52.96875 
Q 50 49.953125 52 44.1875 
z
" id="DejaVuSans-6d"/>
      <path d="M 56.203125 29.59375 
L 56.203125 25.203125 
L 14.890625 25.203125 
Q 15.484375 15.921875 20.484375 11.0625 
Q 25.484375 6.203125 34.421875 6.203125 
Q 39.59375 6.203125 44.453125 7.46875 
Q 49.3125 8.734375 54.109375 11.28125 
L 54.109375 2.78125 
Q 49.265625 0.734375 44.1875 -0.34375 
Q 39.109375 -1.421875 33.890625 -1.421875 
Q 20.796875 -1.421875 13.15625 6.1875 
Q 5.515625 13.8125 5.515625 26.8125 
Q 5.515625 40.234375 12.765625 48.109375 
Q 20.015625 56 32.328125 56 
Q 43.359375 56 49.78125 48.890625 
Q 56.203125 41.796875 56.203125 29.59375 
z
M 47.21875 32.234375 
Q 47.125 39.59375 43.09375 43.984375 
Q 39.0625 48.390625 32.421875 48.390625 
Q 24.90625 48.390625 20.390625 44.140625 
Q 15.875 39.890625 15.1875 32.171875 
z
" id="DejaVuSans-65"/>
     </defs>
     <g transform="translate(280.407031 310.776562)scale(0.1 -0.1)">
      <use xlink:href="#DejaVuSans-74"/>
      <use x="39.208984" xlink:href="#DejaVuSans-69"/>
      <use x="66.992188" xlink:href="#DejaVuSans-6d"/>
      <use x="164.404297" xlink:href="#DejaVuSans-65"/>
     </g>
    </g>
   </g>
   <g id="matplotlib.axis_2">
    <g id="ytick_1">
     <g id="line2d_13">
      <path clip-path="url(#pa82ab7c9e6)" d="M 40.603125 270.292354 
L 542.803125 270.292354 
" style="fill:none;stroke:#b0b0b0;stroke-linecap:square;stroke-width:0.8;"/>
     </g>
     <g id="line2d_14">
      <defs>
       <path d="M 0 0 
L -3.5 0 
" id="m8b357d5166" style="stroke:#000000;stroke-width:0.8;"/>
      </defs>
      <g>
       <use style="stroke:#000000;stroke-width:0.8;" x="40.603125" xlink:href="#m8b357d5166" y="270.292354"/>
      </g>
     </g>
     <g id="text_8">
      <!-- 0 -->
      <g transform="translate(27.240625 274.091572)scale(0.1 -0.1)">
       <use xlink:href="#DejaVuSans-30"/>
      </g>
     </g>
    </g>
    <g id="ytick_2">
     <g id="line2d_15">
      <path clip-path="url(#pa82ab7c9e6)" d="M 40.603125 228.64132 
L 542.803125 228.64132 
" style="fill:none;stroke:#b0b0b0;stroke-linecap:square;stroke-width:0.8;"/>
     </g>
     <g id="line2d_16">
      <g>
       <use style="stroke:#000000;stroke-width:0.8;" x="40.603125" xlink:href="#m8b357d5166" y="228.64132"/>
      </g>
     </g>
     <g id="text_9">
      <!-- 5 -->
      <defs>
       <path d="M 10.796875 72.90625 
L 49.515625 72.90625 
L 49.515625 64.59375 
L 19.828125 64.59375 
L 19.828125 46.734375 
Q 21.96875 47.46875 24.109375 47.828125 
Q 26.265625 48.1875 28.421875 48.1875 
Q 40.625 48.1875 47.75 41.5 
Q 54.890625 34.8125 54.890625 23.390625 
Q 54.890625 11.625 47.5625 5.09375 
Q 40.234375 -1.421875 26.90625 -1.421875 
Q 22.3125 -1.421875 17.546875 -0.640625 
Q 12.796875 0.140625 7.71875 1.703125 
L 7.71875 11.625 
Q 12.109375 9.234375 16.796875 8.0625 
Q 21.484375 6.890625 26.703125 6.890625 
Q 35.15625 6.890625 40.078125 11.328125 
Q 45.015625 15.765625 45.015625 23.390625 
Q 45.015625 31 40.078125 35.4375 
Q 35.15625 39.890625 26.703125 39.890625 
Q 22.75 39.890625 18.8125 39.015625 
Q 14.890625 38.140625 10.796875 36.28125 
z
" id="DejaVuSans-35"/>
      </defs>
      <g transform="translate(27.240625 232.440539)scale(0.1 -0.1)">
       <use xlink:href="#DejaVuSans-35"/>
      </g>
     </g>
    </g>
    <g id="ytick_3">
     <g id="line2d_17">
      <path clip-path="url(#pa82ab7c9e6)" d="M 40.603125 186.990287 
L 542.803125 186.990287 
" style="fill:none;stroke:#b0b0b0;stroke-linecap:square;stroke-width:0.8;"/>
     </g>
     <g id="line2d_18">
      <g>
       <use style="stroke:#000000;stroke-width:0.8;" x="40.603125" xlink:href="#m8b357d5166" y="186.990287"/>
      </g>
     </g>
     <g id="text_10">
      <!-- 10 -->
      <g transform="translate(20.878125 190.789506)scale(0.1 -0.1)">
       <use xlink:href="#DejaVuSans-31"/>
       <use x="63.623047" xlink:href="#DejaVuSans-30"/>
      </g>
     </g>
    </g>
    <g id="ytick_4">
     <g id="line2d_19">
      <path clip-path="url(#pa82ab7c9e6)" d="M 40.603125 145.339254 
L 542.803125 145.339254 
" style="fill:none;stroke:#b0b0b0;stroke-linecap:square;stroke-width:0.8;"/>
     </g>
     <g id="line2d_20">
      <g>
       <use style="stroke:#000000;stroke-width:0.8;" x="40.603125" xlink:href="#m8b357d5166" y="145.339254"/>
      </g>
     </g>
     <g id="text_11">
      <!-- 15 -->
      <g transform="translate(20.878125 149.138472)scale(0.1 -0.1)">
       <use xlink:href="#DejaVuSans-31"/>
       <use x="63.623047" xlink:href="#DejaVuSans-35"/>
      </g>
     </g>
    </g>
    <g id="ytick_5">
     <g id="line2d_21">
      <path clip-path="url(#pa82ab7c9e6)" d="M 40.603125 103.68822 
L 542.803125 103.68822 
" style="fill:none;stroke:#b0b0b0;stroke-linecap:square;stroke-width:0.8;"/>
     </g>
     <g id="line2d_22">
      <g>
       <use style="stroke:#000000;stroke-width:0.8;" x="40.603125" xlink:href="#m8b357d5166" y="103.68822"/>
      </g>
     </g>
     <g id="text_12">
      <!-- 20 -->
      <g transform="translate(20.878125 107.487439)scale(0.1 -0.1)">
       <use xlink:href="#DejaVuSans-32"/>
       <use x="63.623047" xlink:href="#DejaVuSans-30"/>
      </g>
     </g>
    </g>
    <g id="ytick_6">
     <g id="line2d_23">
      <path clip-path="url(#pa82ab7c9e6)" d="M 40.603125 62.037187 
L 542.803125 62.037187 
" style="fill:none;stroke:#b0b0b0;stroke-linecap:square;stroke-width:0.8;"/>
     </g>
     <g id="line2d_24">
      <g>
       <use style="stroke:#000000;stroke-width:0.8;" x="40.603125" xlink:href="#m8b357d5166" y="62.037187"/>
      </g>
     </g>
     <g id="text_13">
      <!-- 25 -->
      <g transform="translate(20.878125 65.836406)scale(0.1 -0.1)">
       <use xlink:href="#DejaVuSans-32"/>
       <use x="63.623047" xlink:href="#DejaVuSans-35"/>
      </g>
     </g>
    </g>
    <g id="ytick_7">
     <g id="line2d_25">
      <path clip-path="url(#pa82ab7c9e6)" d="M 40.603125 20.386154 
L 542.803125 20.386154 
" style="fill:none;stroke:#b0b0b0;stroke-linecap:square;stroke-width:0.8;"/>
     </g>
     <g id="line2d_26">
      <g>
       <use style="stroke:#000000;stroke-width:0.8;" x="40.603125" xlink:href="#m8b357d5166" y="20.386154"/>
      </g>
     </g>
     <g id="text_14">
      <!-- 30 -->
      <defs>
       <path d="M 40.578125 39.3125 
Q 47.65625 37.796875 51.625 33 
Q 55.609375 28.21875 55.609375 21.1875 
Q 55.609375 10.40625 48.1875 4.484375 
Q 40.765625 -1.421875 27.09375 -1.421875 
Q 22.515625 -1.421875 17.65625 -0.515625 
Q 12.796875 0.390625 7.625 2.203125 
L 7.625 11.71875 
Q 11.71875 9.328125 16.59375 8.109375 
Q 21.484375 6.890625 26.8125 6.890625 
Q 36.078125 6.890625 40.9375 10.546875 
Q 45.796875 14.203125 45.796875 21.1875 
Q 45.796875 27.640625 41.28125 31.265625 
Q 36.765625 34.90625 28.71875 34.90625 
L 20.21875 34.90625 
L 20.21875 43.015625 
L 29.109375 43.015625 
Q 36.375 43.015625 40.234375 45.921875 
Q 44.09375 48.828125 44.09375 54.296875 
Q 44.09375 59.90625 40.109375 62.90625 
Q 36.140625 65.921875 28.71875 65.921875 
Q 24.65625 65.921875 20.015625 65.03125 
Q 15.375 64.15625 9.8125 62.3125 
L 9.8125 71.09375 
Q 15.4375 72.65625 20.34375 73.4375 
Q 25.25 74.21875 29.59375 74.21875 
Q 40.828125 74.21875 47.359375 69.109375 
Q 53.90625 64.015625 53.90625 55.328125 
Q 53.90625 49.265625 50.4375 45.09375 
Q 46.96875 40.921875 40.578125 39.3125 
z
" id="DejaVuSans-33"/>
      </defs>
      <g transform="translate(20.878125 24.185372)scale(0.1 -0.1)">
       <use xlink:href="#DejaVuSans-33"/>
       <use x="63.623047" xlink:href="#DejaVuSans-30"/>
      </g>
     </g>
    </g>
    <g id="text_15">
     <!-- population -->
     <defs>
      <path d="M 18.109375 8.203125 
L 18.109375 -20.796875 
L 9.078125 -20.796875 
L 9.078125 54.6875 
L 18.109375 54.6875 
L 18.109375 46.390625 
Q 20.953125 51.265625 25.265625 53.625 
Q 29.59375 56 35.59375 56 
Q 45.5625 56 51.78125 48.09375 
Q 58.015625 40.1875 58.015625 27.296875 
Q 58.015625 14.40625 51.78125 6.484375 
Q 45.5625 -1.421875 35.59375 -1.421875 
Q 29.59375 -1.421875 25.265625 0.953125 
Q 20.953125 3.328125 18.109375 8.203125 
z
M 48.6875 27.296875 
Q 48.6875 37.203125 44.609375 42.84375 
Q 40.53125 48.484375 33.40625 48.484375 
Q 26.265625 48.484375 22.1875 42.84375 
Q 18.109375 37.203125 18.109375 27.296875 
Q 18.109375 17.390625 22.1875 11.75 
Q 26.265625 6.109375 33.40625 6.109375 
Q 40.53125 6.109375 44.609375 11.75 
Q 48.6875 17.390625 48.6875 27.296875 
z
" id="DejaVuSans-70"/>
      <path d="M 30.609375 48.390625 
Q 23.390625 48.390625 19.1875 42.75 
Q 14.984375 37.109375 14.984375 27.296875 
Q 14.984375 17.484375 19.15625 11.84375 
Q 23.34375 6.203125 30.609375 6.203125 
Q 37.796875 6.203125 41.984375 11.859375 
Q 46.1875 17.53125 46.1875 27.296875 
Q 46.1875 37.015625 41.984375 42.703125 
Q 37.796875 48.390625 30.609375 48.390625 
z
M 30.609375 56 
Q 42.328125 56 49.015625 48.375 
Q 55.71875 40.765625 55.71875 27.296875 
Q 55.71875 13.875 49.015625 6.21875 
Q 42.328125 -1.421875 30.609375 -1.421875 
Q 18.84375 -1.421875 12.171875 6.21875 
Q 5.515625 13.875 5.515625 27.296875 
Q 5.515625 40.765625 12.171875 48.375 
Q 18.84375 56 30.609375 56 
z
" id="DejaVuSans-6f"/>
      <path d="M 8.5 21.578125 
L 8.5 54.6875 
L 17.484375 54.6875 
L 17.484375 21.921875 
Q 17.484375 14.15625 20.5 10.265625 
Q 23.53125 6.390625 29.59375 6.390625 
Q 36.859375 6.390625 41.078125 11.03125 
Q 45.3125 15.671875 45.3125 23.6875 
L 45.3125 54.6875 
L 54.296875 54.6875 
L 54.296875 0 
L 45.3125 0 
L 45.3125 8.40625 
Q 42.046875 3.421875 37.71875 1 
Q 33.40625 -1.421875 27.6875 -1.421875 
Q 18.265625 -1.421875 13.375 4.4375 
Q 8.5 10.296875 8.5 21.578125 
z
M 31.109375 56 
z
" id="DejaVuSans-75"/>
      <path d="M 9.421875 75.984375 
L 18.40625 75.984375 
L 18.40625 0 
L 9.421875 0 
z
" id="DejaVuSans-6c"/>
      <path d="M 34.28125 27.484375 
Q 23.390625 27.484375 19.1875 25 
Q 14.984375 22.515625 14.984375 16.5 
Q 14.984375 11.71875 18.140625 8.90625 
Q 21.296875 6.109375 26.703125 6.109375 
Q 34.1875 6.109375 38.703125 11.40625 
Q 43.21875 16.703125 43.21875 25.484375 
L 43.21875 27.484375 
z
M 52.203125 31.203125 
L 52.203125 0 
L 43.21875 0 
L 43.21875 8.296875 
Q 40.140625 3.328125 35.546875 0.953125 
Q 30.953125 -1.421875 24.3125 -1.421875 
Q 15.921875 -1.421875 10.953125 3.296875 
Q 6 8.015625 6 15.921875 
Q 6 25.140625 12.171875 29.828125 
Q 18.359375 34.515625 30.609375 34.515625 
L 43.21875 34.515625 
L 43.21875 35.40625 
Q 43.21875 41.609375 39.140625 45 
Q 35.0625 48.390625 27.6875 48.390625 
Q 23 48.390625 18.546875 47.265625 
Q 14.109375 46.140625 10.015625 43.890625 
L 10.015625 52.203125 
Q 14.9375 54.109375 19.578125 55.046875 
Q 24.21875 56 28.609375 56 
Q 40.484375 56 46.34375 49.84375 
Q 52.203125 43.703125 52.203125 31.203125 
z
" id="DejaVuSans-61"/>
      <path d="M 54.890625 33.015625 
L 54.890625 0 
L 45.90625 0 
L 45.90625 32.71875 
Q 45.90625 40.484375 42.875 44.328125 
Q 39.84375 48.1875 33.796875 48.1875 
Q 26.515625 48.1875 22.3125 43.546875 
Q 18.109375 38.921875 18.109375 30.90625 
L 18.109375 0 
L 9.078125 0 
L 9.078125 54.6875 
L 18.109375 54.6875 
L 18.109375 46.1875 
Q 21.34375 51.125 25.703125 53.5625 
Q 30.078125 56 35.796875 56 
Q 45.21875 56 50.046875 50.171875 
Q 54.890625 44.34375 54.890625 33.015625 
z
" id="DejaVuSans-6e"/>
     </defs>
     <g transform="translate(14.798438 173.207031)rotate(-90)scale(0.1 -0.1)">
      <use xlink:href="#DejaVuSans-70"/>
      <use x="63.476562" xlink:href="#DejaVuSans-6f"/>
      <use x="124.658203" xlink:href="#DejaVuSans-70"/>
      <use x="188.134766" xlink:href="#DejaVuSans-75"/>
      <use x="251.513672" xlink:href="#DejaVuSans-6c"/>
      <use x="279.296875" xlink:href="#DejaVuSans-61"/>
      <use x="340.576172" xlink:href="#DejaVuSans-74"/>
      <use x="379.785156" xlink:href="#DejaVuSans-69"/>
      <use x="407.568359" xlink:href="#DejaVuSans-6f"/>
      <use x="468.75" xlink:href="#DejaVuSans-6e"/>
     </g>
    </g>
   </g>
   <g id="line2d_27">
    <path clip-path="url(#pa82ab7c9e6)" d="M 63.430398 186.990287 
L 64.124354 217.883107 
L 64.745262 236.38278 
L 65.343342 248.02665 
L 65.932292 255.443099 
L 66.521241 260.23726 
L 67.119322 263.393709 
L 67.731099 265.496135 
L 68.365703 266.922196 
L 69.041397 267.914171 
L 69.79014 268.623803 
L 70.666716 269.144328 
L 71.771567 269.531979 
L 73.301009 269.817271 
L 75.679635 270.012642 
L 80.039687 270.116458 
L 87.737121 270.065685 
L 93.357252 269.833694 
L 96.854425 269.479894 
L 99.370015 269.010912 
L 101.337746 268.424632 
L 102.972195 267.709633 
L 104.382935 266.852037 
L 105.647578 265.822575 
L 106.811781 264.584786 
L 107.907501 263.089113 
L 108.957566 261.270124 
L 109.975672 259.049676 
L 110.975517 256.318327 
L 111.961665 252.95549 
L 112.938682 248.807543 
L 113.911133 243.67748 
L 114.883585 237.311354 
L 115.856037 229.421979 
L 116.833054 219.61434 
L 117.819202 207.38622 
L 118.819046 192.110185 
L 119.841718 172.939941 
L 120.910045 148.548924 
L 122.087944 116.27638 
L 125.023561 32.603354 
L 125.411628 28.162799 
L 125.630772 27.466554 
L 125.712951 27.595221 
L 125.854482 28.355902 
L 126.073626 30.969792 
L 126.374949 37.620058 
L 126.767582 51.786897 
L 127.29718 79.868248 
L 129.689502 219.171407 
L 130.31041 237.287166 
L 130.903925 248.578035 
L 131.492875 255.821809 
L 132.081824 260.497817 
L 132.679905 263.57379 
L 133.291682 265.621539 
L 133.926286 267.010109 
L 134.60198 267.975882 
L 135.355288 268.670102 
L 136.240995 269.179702 
L 137.364108 269.559151 
L 138.930075 269.837452 
L 141.390879 270.026358 
L 145.970076 270.122975 
L 153.822736 270.058811 
L 159.269378 269.818546 
L 162.688938 269.457555 
L 165.158873 268.982228 
L 167.103776 268.387636 
L 168.719963 267.664858 
L 170.121572 266.795919 
L 171.377084 265.755311 
L 172.532156 264.507042 
L 173.623311 262.994997 
L 174.66881 261.157903 
L 175.686917 258.906236 
L 176.682196 256.150126 
L 177.668344 252.742397 
L 178.645361 248.538509 
L 179.617812 243.338647 
L 180.590264 236.885265 
L 181.562715 228.887159 
L 182.539732 218.943948 
L 183.525881 206.54694 
L 184.525725 191.061455 
L 185.548397 171.633439 
L 186.616724 146.929271 
L 187.799189 114.153877 
L 190.643495 32.317517 
L 191.045259 27.428773 
L 191.273534 26.593947 
L 191.355713 26.694894 
L 191.492678 27.375222 
L 191.707257 29.814613 
L 192.004014 36.155991 
L 192.392082 49.860605 
L 192.912549 77.116661 
L 193.935221 145.777396 
L 194.816362 197.367271 
L 195.47836 224.013327 
L 196.090137 240.309632 
L 196.679087 250.504786 
L 197.263471 257.044604 
L 197.85242 261.303682 
L 198.450501 264.107794 
L 199.066843 265.989255 
L 199.710579 267.271458 
L 200.399969 268.164992 
L 201.176104 268.809375 
L 202.102901 269.284107 
L 203.303627 269.637591 
L 205.020255 269.893637 
L 207.818907 270.061608 
L 213.242721 270.131207 
L 221.109078 270.019215 
L 225.939377 269.750024 
L 229.085007 269.363476 
L 231.408847 268.862408 
L 233.26244 268.241521 
L 234.819275 267.489685 
L 236.179794 266.587782 
L 237.407914 265.506672 
L 238.549289 264.201771 
L 239.626747 262.626387 
L 240.663116 260.709144 
L 241.672091 258.363971 
L 242.66737 255.46969 
L 243.648953 251.90906 
L 244.62597 247.497925 
L 245.598421 242.041667 
L 246.570873 235.270657 
L 247.543324 226.880676 
L 248.520341 216.454411 
L 249.506489 203.463954 
L 250.510899 187.173899 
L 251.538137 166.761622 
L 252.620161 140.648798 
L 253.84828 105.300929 
L 256.249733 34.553772 
L 256.715414 27.421241 
L 256.99391 25.76591 
L 257.066958 25.721792 
L 257.108047 25.773934 
L 257.22675 26.248859 
L 257.423067 28.151933 
L 257.696997 33.308277 
L 258.057671 44.783475 
L 258.537049 67.975038 
L 259.294922 117.337774 
L 260.472821 191.81614 
L 261.148515 220.812284 
L 261.760292 238.262216 
L 262.353807 249.27696 
L 262.938191 256.272859 
L 263.527141 260.819434 
L 264.125221 263.80362 
L 264.736998 265.786738 
L 265.371603 267.129522 
L 266.051862 268.067339 
L 266.809735 268.73847 
L 267.709139 269.232935 
L 268.859645 269.600494 
L 270.480397 269.868237 
L 273.073601 270.04757 
L 278.013473 270.133208 
L 286.067015 270.049779 
L 291.285382 269.798391 
L 294.595369 269.428493 
L 297.010519 268.943289 
L 298.918898 268.339 
L 300.512258 267.604738 
L 301.895604 266.72419 
L 303.141986 265.66597 
L 304.292492 264.393545 
L 305.379081 262.853454 
L 306.420015 260.983779 
L 307.433556 258.693962 
L 308.428835 255.878995 
L 309.410418 252.415407 
L 310.387435 248.123669 
L 311.359886 242.813809 
L 312.332338 236.222424 
L 313.304789 228.051693 
L 314.281806 217.892342 
L 315.267954 205.224791 
L 316.267799 189.401864 
L 317.290471 169.555511 
L 318.363363 144.219742 
L 319.559524 110.392053 
L 322.257735 31.495756 
L 322.677761 25.912548 
L 322.924298 24.838534 
L 323.006477 24.907518 
L 323.011043 24.91802 
L 323.138877 25.507748 
L 323.344324 27.71431 
L 323.631951 33.605616 
L 324.006322 46.404472 
L 324.508527 72.144609 
L 325.380537 130.819629 
L 326.380382 192.855055 
L 327.05151 221.450178 
L 327.663287 238.733411 
L 328.252237 249.547563 
L 328.836621 256.46904 
L 329.421005 260.93301 
L 330.01452 263.869561 
L 330.626297 265.837212 
L 331.260901 267.168073 
L 331.941161 268.096614 
L 332.699034 268.760446 
L 333.598438 269.249044 
L 334.753509 269.612915 
L 336.387958 269.877843 
L 339.017686 270.054551 
L 344.06713 270.137288 
L 352.202851 270.049155 
L 357.375563 269.795395 
L 360.662723 269.423543 
L 363.064176 268.936552 
L 364.963424 268.330572 
L 366.547653 267.596081 
L 367.926434 266.714106 
L 369.16825 265.65534 
L 370.31419 264.38365 
L 371.396214 262.846076 
L 372.437148 260.972172 
L 373.450689 258.676809 
L 374.445968 255.854592 
L 375.42755 252.381569 
L 376.404567 248.077509 
L 377.377019 242.751619 
L 378.349471 236.139344 
L 379.321922 227.941438 
L 380.298939 217.746611 
L 381.285087 205.032543 
L 382.284932 189.148335 
L 383.307604 169.22058 
L 384.380496 143.774153 
L 385.576657 109.788339 
L 388.270302 30.630311 
L 388.690329 25.02172 
L 388.936866 23.950494 
L 389.02361 24.034855 
L 389.15601 24.668258 
L 389.361457 26.940133 
L 389.649084 32.951687 
L 390.02802 46.147598 
L 390.534791 72.567296 
L 391.443325 134.370241 
L 392.40208 193.594951 
L 393.068643 221.884484 
L 393.68042 239.069802 
L 394.26937 249.79768 
L 394.853754 256.651579 
L 395.438138 261.065627 
L 396.031653 263.965941 
L 396.64343 265.907395 
L 397.278034 267.219417 
L 397.958294 268.134117 
L 398.720732 268.790704 
L 399.624701 269.271992 
L 400.79347 269.631104 
L 402.455312 269.891514 
L 405.148957 270.063809 
L 410.38102 270.141496 
L 418.576093 270.045066 
L 423.652929 269.786906 
L 426.899 269.41084 
L 429.27306 268.920657 
L 431.158611 268.310261 
L 432.733709 267.570754 
L 434.107925 266.681527 
L 435.345175 265.61519 
L 436.491116 264.329972 
L 437.573139 262.7757 
L 438.614073 260.881075 
L 439.627614 258.559918 
L 440.622893 255.705529 
L 441.604476 252.192397 
L 442.581493 247.838049 
L 443.553944 242.449285 
L 444.526396 235.758243 
L 445.498848 227.461971 
L 446.475865 217.144209 
L 447.462013 204.276605 
L 448.461857 188.201462 
L 449.484529 168.038033 
L 450.557422 142.303219 
L 451.758148 107.835473 
L 454.378745 30.219138 
L 454.807902 24.255621 
L 455.059005 23.064273 
L 455.122922 23.081093 
L 455.150315 23.130793 
L 455.278149 23.713002 
L 455.479031 25.859315 
L 455.762092 31.630598 
L 456.131897 44.253465 
L 456.624971 69.562797 
L 457.460458 126.221335 
L 458.496827 191.88753 
L 459.167955 220.982622 
L 459.779732 238.533193 
L 460.368682 249.484102 
L 460.953066 256.471656 
L 461.53745 260.964206 
L 462.130965 263.910518 
L 462.738176 265.867049 
L 463.372781 267.198612 
L 464.05304 268.124871 
L 464.810913 268.78508 
L 465.710317 269.269484 
L 466.869954 269.630041 
L 468.513534 269.891218 
L 471.175221 270.06466 
L 476.352498 270.144618 
L 484.648012 270.052914 
L 489.807027 269.798072 
L 493.080491 269.425893 
L 495.472813 268.938793 
L 497.367495 268.332098 
L 498.951724 267.594765 
L 500.330505 266.70886 
L 501.567755 265.649326 
L 502.713696 264.372098 
L 503.79572 262.827254 
L 504.836654 260.943846 
L 505.850195 258.636104 
L 506.845474 255.797801 
L 507.827056 252.303949 
L 508.799508 247.995338 
L 509.771959 242.63985 
L 510.739845 236.023521 
L 511.712297 227.783271 
L 512.689314 217.532217 
L 513.670896 204.808696 
L 514.666176 188.9194 
L 515.688848 168.890533 
L 516.757175 143.413035 
L 517.944205 109.486605 
L 519.975852 45.211264 
L 519.975852 45.211264 
" style="fill:none;stroke:#1f77b4;stroke-linecap:square;stroke-width:1.5;"/>
   </g>
   <g id="line2d_28">
    <path clip-path="url(#pa82ab7c9e6)" d="M 63.430398 186.990287 
L 63.928037 182.754156 
L 64.334367 180.951761 
L 64.644821 180.408233 
L 64.863965 180.384471 
L 65.087674 180.618256 
L 65.407259 181.325452 
L 65.882071 182.991081 
L 66.617117 186.489833 
L 68.073511 194.743145 
L 70.630192 209.001604 
L 72.415302 217.667385 
L 74.122799 224.881725 
L 75.807469 231.058095 
L 77.487573 236.39329 
L 79.176808 241.031866 
L 80.875174 245.05823 
L 82.591802 248.565888 
L 84.331258 251.622854 
L 86.102672 254.293284 
L 87.915175 256.629053 
L 89.782465 258.676958 
L 91.722802 260.477197 
L 93.75445 262.059453 
L 95.900235 263.448303 
L 98.187551 264.662795 
L 100.652921 265.718037 
L 103.328304 266.618877 
L 106.241093 267.36246 
L 109.35933 267.927912 
L 112.509525 268.275566 
L 115.289915 268.367284 
L 117.408307 268.227057 
L 118.94688 267.913262 
L 120.097386 267.458972 
L 121.005921 266.864176 
L 121.768359 266.096379 
L 122.439488 265.096914 
L 123.05583 263.766388 
L 123.640214 261.952744 
L 124.206336 259.434196 
L 124.767893 255.859066 
L 125.334015 250.731351 
L 125.92753 243.197546 
L 126.603224 231.552267 
L 127.781123 206.36163 
L 128.607479 191.286153 
L 129.173601 184.635522 
L 129.630151 181.569505 
L 129.995391 180.387934 
L 130.264755 180.113821 
L 130.470203 180.18902 
L 130.725871 180.570694 
L 131.100242 181.593362 
L 131.657233 183.845056 
L 132.565767 188.573066 
L 137.359542 214.8411 
L 139.080736 222.482099 
L 140.769971 228.994566 
L 142.450075 234.607671 
L 144.134745 239.477322 
L 145.828545 243.70683 
L 147.536042 247.384373 
L 149.266367 250.592465 
L 151.024085 253.390918 
L 152.822892 255.842246 
L 154.671919 257.989883 
L 156.584864 259.873572 
L 158.579987 261.527735 
L 160.680117 262.980699 
L 162.912647 264.254441 
L 165.309535 265.364645 
L 167.907304 266.32072 
L 170.737914 267.122924 
L 173.801365 267.757874 
L 176.988084 268.191993 
L 179.969356 268.380243 
L 182.352547 268.319534 
L 184.087437 268.06491 
L 185.361212 267.662655 
L 186.34736 267.122759 
L 187.155453 266.426203 
L 187.853975 265.524969 
L 188.488579 264.330208 
L 189.082094 262.718538 
L 189.652782 260.493996 
L 190.214338 257.356299 
L 190.775895 252.875728 
L 191.355713 246.339941 
L 191.990318 236.469705 
L 192.812108 219.790264 
L 194.163496 192.468872 
L 194.74788 185.071991 
L 195.218127 181.608353 
L 195.597063 180.225694 
L 195.880124 179.869612 
L 196.085572 179.912565 
L 196.327543 180.236183 
L 196.679087 181.134373 
L 197.204119 183.1668 
L 198.044171 187.434048 
L 200.468452 201.455556 
L 202.427051 211.901149 
L 204.171072 220.022469 
L 205.869438 226.895736 
L 207.554108 232.805569 
L 209.238778 237.919817 
L 210.928013 242.351624 
L 212.630944 246.207189 
L 214.352138 249.564095 
L 216.100724 252.495159 
L 217.885835 255.059143 
L 219.716601 257.303694 
L 221.606718 259.272084 
L 223.574448 261.001634 
L 225.638054 262.519932 
L 227.824929 263.852419 
L 230.162465 265.015439 
L 232.691752 266.023507 
L 235.444749 266.878752 
L 238.439717 267.573831 
L 241.621871 268.083203 
L 244.740107 268.361327 
L 247.369835 268.383183 
L 249.319304 268.189656 
L 250.734609 267.836127 
L 251.802936 267.347604 
L 252.66125 266.713427 
L 253.39173 265.893975 
L 254.044597 264.817233 
L 254.651808 263.366627 
L 255.231627 261.371096 
L 255.793183 258.595616 
L 256.350174 254.658692 
L 256.920862 248.930058 
L 257.528073 240.423555 
L 258.249422 226.877291 
L 260.180629 188.639304 
L 260.710227 183.120246 
L 261.143949 180.629044 
L 261.486362 179.749859 
L 261.728333 179.605318 
L 261.933781 179.741954 
L 262.212276 180.244808 
L 262.623171 181.51247 
L 263.24408 184.241308 
L 264.316972 190.119978 
L 267.937414 210.49049 
L 269.695131 218.856967 
L 271.393497 225.885836 
L 273.078167 231.931878 
L 274.758271 237.151769 
L 276.447506 241.688754 
L 278.145872 245.626212 
L 279.8625 249.056001 
L 281.606521 252.052111 
L 283.382501 254.668048 
L 285.204135 256.960295 
L 287.080556 258.968064 
L 289.030025 260.731227 
L 291.075369 262.282441 
L 293.239416 263.644474 
L 295.549559 264.83501 
L 298.042322 265.868123 
L 300.754229 266.749368 
L 303.712673 267.474478 
L 306.88113 268.020865 
L 310.058719 268.345935 
L 312.820846 268.414377 
L 314.898149 268.256168 
L 316.400198 267.929686 
L 317.523311 267.465538 
L 318.413584 266.860068 
L 319.162326 266.079536 
L 319.824323 265.060408 
L 320.436101 263.694043 
L 321.015919 261.828923 
L 321.577476 259.235825 
L 322.134467 255.552006 
L 322.700589 250.217811 
L 323.294104 242.375305 
L 323.978929 230.110176 
L 326.27081 185.925455 
L 326.763884 181.696797 
L 327.165648 179.91598 
L 327.471536 179.389862 
L 327.686115 179.37471 
L 327.909824 179.619614 
L 328.233975 180.362925 
L 328.713352 182.096777 
L 329.462094 185.75259 
L 331.000668 194.638096 
L 333.424949 208.30602 
L 335.205494 217.058647 
L 336.912991 224.361827 
L 338.59766 230.61247 
L 340.277764 236.010824 
L 341.962434 240.691947 
L 343.6608 244.766729 
L 345.372863 248.307607 
L 347.107753 251.394746 
L 348.874601 254.092694 
L 350.682539 256.453628 
L 352.545263 258.524653 
L 354.47647 260.342317 
L 356.498987 261.941759 
L 358.631075 263.344831 
L 360.904694 264.574389 
L 363.356368 265.645593 
L 366.018055 266.563552 
L 368.921713 267.327311 
L 372.058211 267.920656 
L 375.281454 268.305421 
L 378.203375 268.437827 
L 380.458732 268.330005 
L 382.088615 268.040892 
L 383.289342 267.610682 
L 384.225269 267.044079 
L 385.001404 266.314004 
L 385.681664 265.361642 
L 386.302572 264.095458 
L 386.886956 262.376785 
L 387.453078 259.98285 
L 388.010069 256.60157 
L 388.571626 251.730529 
L 389.15601 244.575942 
L 389.808876 233.604712 
L 390.744804 213.490493 
L 391.794869 192.276013 
L 392.383818 184.54911 
L 392.854065 180.947265 
L 393.237567 179.485374 
L 393.520628 179.107186 
L 393.726075 179.141988 
L 393.963481 179.454199 
L 394.310459 180.337528 
L 394.826361 182.338964 
L 395.652716 186.561353 
L 397.857853 199.467393 
L 399.871238 210.458622 
L 401.624391 218.816832 
L 403.322757 225.854831 
L 405.002861 231.891986 
L 406.682965 237.118701 
L 408.3722 241.661233 
L 410.070566 245.603286 
L 411.787194 249.036948 
L 413.531215 252.036367 
L 415.307195 254.655155 
L 417.128829 256.949894 
L 419.00525 258.959865 
L 420.954718 260.72501 
L 423.000063 262.278057 
L 425.16411 263.641845 
L 427.474253 264.834153 
L 429.971581 265.870887 
L 432.688054 266.755399 
L 435.651064 267.484038 
L 438.837783 268.037227 
L 442.051895 268.371815 
L 444.864243 268.450157 
L 446.982635 268.299372 
L 448.507512 267.97899 
L 449.644322 267.520149 
L 450.53916 266.922739 
L 451.287902 266.154993 
L 451.949899 265.151485 
L 452.561676 263.80432 
L 453.141495 261.962471 
L 453.703051 259.396618 
L 454.260042 255.74234 
L 454.821599 250.484692 
L 455.410548 242.738872 
L 456.086242 230.653135 
L 458.451172 184.913567 
L 458.935115 180.941427 
L 459.323182 179.322787 
L 459.61994 178.861195 
L 459.829953 178.870978 
L 460.058228 179.146802 
L 460.391509 179.955537 
L 460.889149 181.830117 
L 461.674415 185.777589 
L 463.450394 196.182779 
L 465.660096 208.587224 
L 467.43151 217.271631 
L 469.134442 224.53301 
L 470.819112 230.763244 
L 472.499216 236.14284 
L 474.183885 240.80712 
L 475.882251 244.866924 
L 477.594314 248.394602 
L 479.333769 251.477618 
L 481.105184 254.170694 
L 482.917687 256.526252 
L 484.784977 258.591573 
L 486.720749 260.403361 
L 488.747831 261.99686 
L 490.884485 263.394064 
L 493.167235 264.620146 
L 495.623474 265.685552 
L 498.294292 266.59971 
L 501.211646 267.360973 
L 504.370973 267.953626 
L 507.621609 268.338458 
L 510.570922 268.47152 
L 512.849106 268.363838 
L 514.483556 268.075758 
L 515.688848 267.645638 
L 516.624775 267.079972 
L 517.40091 266.349791 
L 518.076604 265.403073 
L 518.697512 264.13478 
L 519.281896 262.409365 
L 519.843453 260.0234 
L 519.975852 259.3228 
L 519.975852 259.3228 
" style="fill:none;stroke:#ff7f0e;stroke-dasharray:5.55,2.4;stroke-dashoffset:0;stroke-width:1.5;"/>
   </g>
   <g id="patch_3">
    <path d="M 40.603125 282.5 
L 40.603125 10.7 
" style="fill:none;stroke:#000000;stroke-linecap:square;stroke-linejoin:miter;stroke-width:0.8;"/>
   </g>
   <g id="patch_4">
    <path d="M 542.803125 282.5 
L 542.803125 10.7 
" style="fill:none;stroke:#000000;stroke-linecap:square;stroke-linejoin:miter;stroke-width:0.8;"/>
   </g>
   <g id="patch_5">
    <path d="M 40.603125 282.5 
L 542.803125 282.5 
" style="fill:none;stroke:#000000;stroke-linecap:square;stroke-linejoin:miter;stroke-width:0.8;"/>
   </g>
   <g id="patch_6">
    <path d="M 40.603125 10.7 
L 542.803125 10.7 
" style="fill:none;stroke:#000000;stroke-linecap:square;stroke-linejoin:miter;stroke-width:0.8;"/>
   </g>
   <g id="legend_1">
    <g id="patch_7">
     <path d="M 460.8875 48.05625 
L 535.803125 48.05625 
Q 537.803125 48.05625 537.803125 46.05625 
L 537.803125 17.7 
Q 537.803125 15.7 535.803125 15.7 
L 460.8875 15.7 
Q 458.8875 15.7 458.8875 17.7 
L 458.8875 46.05625 
Q 458.8875 48.05625 460.8875 48.05625 
z
" style="fill:#ffffff;opacity:0.8;stroke:#cccccc;stroke-linejoin:miter;"/>
    </g>
    <g id="line2d_29">
     <path d="M 462.8875 23.798437 
L 482.8875 23.798437 
" style="fill:none;stroke:#1f77b4;stroke-linecap:square;stroke-width:1.5;"/>
    </g>
    <g id="line2d_30"/>
    <g id="text_16">
     <!-- Prey -->
     <defs>
      <path d="M 19.671875 64.796875 
L 19.671875 37.40625 
L 32.078125 37.40625 
Q 38.96875 37.40625 42.71875 40.96875 
Q 46.484375 44.53125 46.484375 51.125 
Q 46.484375 57.671875 42.71875 61.234375 
Q 38.96875 64.796875 32.078125 64.796875 
z
M 9.8125 72.90625 
L 32.078125 72.90625 
Q 44.34375 72.90625 50.609375 67.359375 
Q 56.890625 61.8125 56.890625 51.125 
Q 56.890625 40.328125 50.609375 34.8125 
Q 44.34375 29.296875 32.078125 29.296875 
L 19.671875 29.296875 
L 19.671875 0 
L 9.8125 0 
z
" id="DejaVuSans-50"/>
      <path d="M 41.109375 46.296875 
Q 39.59375 47.171875 37.8125 47.578125 
Q 36.03125 48 33.890625 48 
Q 26.265625 48 22.1875 43.046875 
Q 18.109375 38.09375 18.109375 28.8125 
L 18.109375 0 
L 9.078125 0 
L 9.078125 54.6875 
L 18.109375 54.6875 
L 18.109375 46.1875 
Q 20.953125 51.171875 25.484375 53.578125 
Q 30.03125 56 36.53125 56 
Q 37.453125 56 38.578125 55.875 
Q 39.703125 55.765625 41.0625 55.515625 
z
" id="DejaVuSans-72"/>
      <path d="M 32.171875 -5.078125 
Q 28.375 -14.84375 24.75 -17.8125 
Q 21.140625 -20.796875 15.09375 -20.796875 
L 7.90625 -20.796875 
L 7.90625 -13.28125 
L 13.1875 -13.28125 
Q 16.890625 -13.28125 18.9375 -11.515625 
Q 21 -9.765625 23.484375 -3.21875 
L 25.09375 0.875 
L 2.984375 54.6875 
L 12.5 54.6875 
L 29.59375 11.921875 
L 46.6875 54.6875 
L 56.203125 54.6875 
z
" id="DejaVuSans-79"/>
     </defs>
     <g transform="translate(490.8875 27.298437)scale(0.1 -0.1)">
      <use xlink:href="#DejaVuSans-50"/>
      <use x="60.287109" xlink:href="#DejaVuSans-72"/>
      <use x="101.369141" xlink:href="#DejaVuSans-65"/>
      <use x="162.892578" xlink:href="#DejaVuSans-79"/>
     </g>
    </g>
    <g id="line2d_31">
     <path d="M 462.8875 38.476562 
L 482.8875 38.476562 
" style="fill:none;stroke:#ff7f0e;stroke-dasharray:5.55,2.4;stroke-dashoffset:0;stroke-width:1.5;"/>
    </g>
    <g id="line2d_32"/>
    <g id="text_17">
     <!-- Predator -->
     <defs>
      <path d="M 45.40625 46.390625 
L 45.40625 75.984375 
L 54.390625 75.984375 
L 54.390625 0 
L 45.40625 0 
L 45.40625 8.203125 
Q 42.578125 3.328125 38.25 0.953125 
Q 33.9375 -1.421875 27.875 -1.421875 
Q 17.96875 -1.421875 11.734375 6.484375 
Q 5.515625 14.40625 5.515625 27.296875 
Q 5.515625 40.1875 11.734375 48.09375 
Q 17.96875 56 27.875 56 
Q 33.9375 56 38.25 53.625 
Q 42.578125 51.265625 45.40625 46.390625 
z
M 14.796875 27.296875 
Q 14.796875 17.390625 18.875 11.75 
Q 22.953125 6.109375 30.078125 6.109375 
Q 37.203125 6.109375 41.296875 11.75 
Q 45.40625 17.390625 45.40625 27.296875 
Q 45.40625 37.203125 41.296875 42.84375 
Q 37.203125 48.484375 30.078125 48.484375 
Q 22.953125 48.484375 18.875 42.84375 
Q 14.796875 37.203125 14.796875 27.296875 
z
" id="DejaVuSans-64"/>
     </defs>
     <g transform="translate(490.8875 41.976562)scale(0.1 -0.1)">
      <use xlink:href="#DejaVuSans-50"/>
      <use x="60.287109" xlink:href="#DejaVuSans-72"/>
      <use x="101.369141" xlink:href="#DejaVuSans-65"/>
      <use x="162.892578" xlink:href="#DejaVuSans-64"/>
      <use x="226.369141" xlink:href="#DejaVuSans-61"/>
      <use x="287.648438" xlink:href="#DejaVuSans-74"/>
      <use x="326.857422" xlink:href="#DejaVuSans-6f"/>
      <use x="388.039062" xlink:href="#DejaVuSans-72"/>
     </g>
    </g>
   </g>
  </g>
 </g>
 <defs>
  <clipPath id="pa82ab7c9e6">
   <rect height="271.8" width="502.2" x="40.603125" y="10.7"/>
  </clipPath>
 </defs>
</svg>
